<mxfile host="app.diagrams.net" modified="2021-05-20T15:34:23.653Z" agent="5.0 (Windows NT 10.0; Win64; x64) AppleWebKit/537.36 (KHTML, like Gecko) Chrome/90.0.4430.72 Safari/537.36" etag="Zg80OoImcdsyRYQSY7nw" version="14.6.13" type="github">
  <diagram name="Page-1" id="c7488fd3-1785-93aa-aadb-54a6760d102a">
    <mxGraphModel dx="2671" dy="889" grid="1" gridSize="10" guides="1" tooltips="1" connect="1" arrows="1" fold="1" page="1" pageScale="1" pageWidth="1100" pageHeight="850" background="#ffffff" math="0" shadow="0">
      <root>
        <mxCell id="0" />
        <mxCell id="1" parent="0" />
        <mxCell id="MG2l7j5qfs5tsOOVZs4c-87" style="edgeStyle=orthogonalEdgeStyle;curved=1;rounded=0;orthogonalLoop=1;jettySize=auto;html=1;entryX=0;entryY=0.5;entryDx=0;entryDy=0;entryPerimeter=0;dashed=1;startArrow=none;startFill=0;endArrow=block;endFill=0;exitX=0.19;exitY=1;exitDx=0;exitDy=0;exitPerimeter=0;" parent="1" source="MG2l7j5qfs5tsOOVZs4c-33" edge="1">
          <mxGeometry relative="1" as="geometry">
            <mxPoint x="70" y="460" as="sourcePoint" />
            <mxPoint x="200" y="600" as="targetPoint" />
            <Array as="points">
              <mxPoint x="60" y="600" />
            </Array>
          </mxGeometry>
        </mxCell>
        <mxCell id="MG2l7j5qfs5tsOOVZs4c-96" style="edgeStyle=orthogonalEdgeStyle;curved=1;rounded=0;orthogonalLoop=1;jettySize=auto;html=1;entryX=0;entryY=0.5;entryDx=0;entryDy=0;dashed=1;startArrow=none;startFill=0;endArrow=block;endFill=0;" parent="1" source="MG2l7j5qfs5tsOOVZs4c-68" target="MG2l7j5qfs5tsOOVZs4c-90" edge="1">
          <mxGeometry relative="1" as="geometry">
            <Array as="points">
              <mxPoint x="355" y="600" />
            </Array>
          </mxGeometry>
        </mxCell>
        <mxCell id="MG2l7j5qfs5tsOOVZs4c-68" value="new &lt;b&gt;ParamAnalyser&lt;/b&gt;" style="rounded=0;whiteSpace=wrap;html=1;labelBackgroundColor=#FFFFFF;strokeWidth=1;align=center;" parent="1" vertex="1">
          <mxGeometry x="290" y="497" width="130" height="37" as="geometry" />
        </mxCell>
        <mxCell id="MG2l7j5qfs5tsOOVZs4c-95" style="edgeStyle=orthogonalEdgeStyle;curved=1;rounded=0;orthogonalLoop=1;jettySize=auto;html=1;entryX=0;entryY=0.5;entryDx=0;entryDy=0;dashed=1;startArrow=none;startFill=0;endArrow=block;endFill=0;" parent="1" source="MG2l7j5qfs5tsOOVZs4c-69" target="MG2l7j5qfs5tsOOVZs4c-90" edge="1">
          <mxGeometry relative="1" as="geometry">
            <Array as="points">
              <mxPoint x="365" y="600" />
            </Array>
          </mxGeometry>
        </mxCell>
        <mxCell id="MG2l7j5qfs5tsOOVZs4c-69" value="new &lt;b&gt;ParamAnalyser&lt;/b&gt;" style="rounded=0;whiteSpace=wrap;html=1;labelBackgroundColor=#FFFFFF;strokeWidth=1;align=center;" parent="1" vertex="1">
          <mxGeometry x="300" y="507" width="130" height="37" as="geometry" />
        </mxCell>
        <mxCell id="MG2l7j5qfs5tsOOVZs4c-72" style="edgeStyle=orthogonalEdgeStyle;rounded=0;orthogonalLoop=1;jettySize=auto;html=1;entryX=0;entryY=0.5;entryDx=0;entryDy=0;startArrow=none;startFill=0;endArrow=block;endFill=1;exitX=0.5;exitY=1;exitDx=0;exitDy=0;" parent="1" source="MG2l7j5qfs5tsOOVZs4c-33" target="MG2l7j5qfs5tsOOVZs4c-69" edge="1">
          <mxGeometry relative="1" as="geometry">
            <mxPoint x="130" y="510" as="sourcePoint" />
            <mxPoint x="250" y="548.5" as="targetPoint" />
          </mxGeometry>
        </mxCell>
        <mxCell id="MG2l7j5qfs5tsOOVZs4c-73" style="edgeStyle=orthogonalEdgeStyle;rounded=0;orthogonalLoop=1;jettySize=auto;html=1;entryX=0;entryY=0.5;entryDx=0;entryDy=0;startArrow=none;startFill=0;endArrow=block;endFill=1;exitX=0.5;exitY=1;exitDx=0;exitDy=0;" parent="1" source="MG2l7j5qfs5tsOOVZs4c-32" target="MG2l7j5qfs5tsOOVZs4c-68" edge="1">
          <mxGeometry relative="1" as="geometry" />
        </mxCell>
        <mxCell id="MG2l7j5qfs5tsOOVZs4c-89" style="edgeStyle=orthogonalEdgeStyle;curved=1;rounded=0;orthogonalLoop=1;jettySize=auto;html=1;entryX=0;entryY=0.5;entryDx=0;entryDy=0;entryPerimeter=0;dashed=1;startArrow=none;startFill=0;endArrow=block;endFill=0;exitX=0.148;exitY=1.083;exitDx=0;exitDy=0;exitPerimeter=0;" parent="1" source="MG2l7j5qfs5tsOOVZs4c-32" target="MG2l7j5qfs5tsOOVZs4c-86" edge="1">
          <mxGeometry relative="1" as="geometry">
            <Array as="points">
              <mxPoint x="44" y="610" />
            </Array>
          </mxGeometry>
        </mxCell>
        <mxCell id="MG2l7j5qfs5tsOOVZs4c-32" value="" style="shape=process;whiteSpace=wrap;html=1;backgroundOutline=1;" parent="1" vertex="1">
          <mxGeometry x="20" y="450" width="160" height="30" as="geometry" />
        </mxCell>
        <mxCell id="MG2l7j5qfs5tsOOVZs4c-52" value="" style="endArrow=none;dashed=1;html=1;entryX=0.5;entryY=1;entryDx=0;entryDy=0;entryPerimeter=0;exitX=0.5;exitY=0;exitDx=0;exitDy=0;startArrow=blockThin;startFill=0;" parent="1" source="MG2l7j5qfs5tsOOVZs4c-32" edge="1">
          <mxGeometry width="50" height="50" relative="1" as="geometry">
            <mxPoint x="90" y="401.0800000000001" as="sourcePoint" />
            <mxPoint x="364.9200000000001" y="340.00000000000006" as="targetPoint" />
            <Array as="points">
              <mxPoint x="110" y="430" />
              <mxPoint x="365" y="370" />
            </Array>
          </mxGeometry>
        </mxCell>
        <mxCell id="MG2l7j5qfs5tsOOVZs4c-56" value=".take(Measurement)" style="edgeLabel;html=1;align=center;verticalAlign=middle;resizable=0;points=[];labelBorderColor=none;labelBackgroundColor=#FFFFFF;rotation=347;" parent="MG2l7j5qfs5tsOOVZs4c-52" vertex="1" connectable="0">
          <mxGeometry x="0.2272" y="1" relative="1" as="geometry">
            <mxPoint x="-36" as="offset" />
          </mxGeometry>
        </mxCell>
        <mxCell id="MG2l7j5qfs5tsOOVZs4c-23" value="" style="edgeStyle=orthogonalEdgeStyle;rounded=0;orthogonalLoop=1;jettySize=auto;html=1;entryX=0;entryY=0.5;entryDx=0;entryDy=0;entryPerimeter=0;" parent="1" source="MG2l7j5qfs5tsOOVZs4c-1" target="MG2l7j5qfs5tsOOVZs4c-19" edge="1">
          <mxGeometry relative="1" as="geometry">
            <Array as="points">
              <mxPoint x="260" y="265" />
              <mxPoint x="260" y="330" />
            </Array>
          </mxGeometry>
        </mxCell>
        <mxCell id="MG2l7j5qfs5tsOOVZs4c-57" value=".put()" style="edgeLabel;html=1;align=center;verticalAlign=middle;resizable=0;points=[];" parent="MG2l7j5qfs5tsOOVZs4c-23" vertex="1" connectable="0">
          <mxGeometry x="0.0257" y="-2" relative="1" as="geometry">
            <mxPoint x="18" y="5" as="offset" />
          </mxGeometry>
        </mxCell>
        <mxCell id="MG2l7j5qfs5tsOOVZs4c-1" value="" style="shape=process;whiteSpace=wrap;html=1;backgroundOutline=1;" parent="1" vertex="1">
          <mxGeometry x="90" y="250" width="120" height="30" as="geometry" />
        </mxCell>
        <mxCell id="MG2l7j5qfs5tsOOVZs4c-24" style="edgeStyle=orthogonalEdgeStyle;rounded=0;orthogonalLoop=1;jettySize=auto;html=1;entryX=0;entryY=0.5;entryDx=0;entryDy=0;entryPerimeter=0;" parent="1" source="MG2l7j5qfs5tsOOVZs4c-2" target="MG2l7j5qfs5tsOOVZs4c-20" edge="1">
          <mxGeometry relative="1" as="geometry">
            <Array as="points">
              <mxPoint x="250" y="275" />
              <mxPoint x="250" y="340" />
            </Array>
          </mxGeometry>
        </mxCell>
        <mxCell id="MG2l7j5qfs5tsOOVZs4c-2" value="" style="shape=process;whiteSpace=wrap;html=1;backgroundOutline=1;" parent="1" vertex="1">
          <mxGeometry x="100" y="260" width="120" height="30" as="geometry" />
        </mxCell>
        <mxCell id="MG2l7j5qfs5tsOOVZs4c-22" value="" style="edgeStyle=orthogonalEdgeStyle;rounded=0;orthogonalLoop=1;jettySize=auto;html=1;" parent="1" source="MG2l7j5qfs5tsOOVZs4c-3" target="MG2l7j5qfs5tsOOVZs4c-21" edge="1">
          <mxGeometry relative="1" as="geometry">
            <Array as="points">
              <mxPoint x="240" y="285" />
              <mxPoint x="240" y="350" />
            </Array>
          </mxGeometry>
        </mxCell>
        <mxCell id="MG2l7j5qfs5tsOOVZs4c-3" value="Thread (Fetch)" style="shape=process;whiteSpace=wrap;html=1;backgroundOutline=1;" parent="1" vertex="1">
          <mxGeometry x="110" y="270" width="120" height="30" as="geometry" />
        </mxCell>
        <mxCell id="MG2l7j5qfs5tsOOVZs4c-8" value="" style="edgeStyle=orthogonalEdgeStyle;rounded=0;orthogonalLoop=1;jettySize=auto;html=1;" parent="1" source="MG2l7j5qfs5tsOOVZs4c-4" target="MG2l7j5qfs5tsOOVZs4c-7" edge="1">
          <mxGeometry relative="1" as="geometry" />
        </mxCell>
        <mxCell id="MG2l7j5qfs5tsOOVZs4c-4" value="new ClusterToMySQL" style="shape=process;whiteSpace=wrap;html=1;backgroundOutline=1;" parent="1" vertex="1">
          <mxGeometry x="445" y="30" width="160" height="40" as="geometry" />
        </mxCell>
        <mxCell id="MG2l7j5qfs5tsOOVZs4c-10" value="MQTT" style="edgeStyle=orthogonalEdgeStyle;rounded=0;orthogonalLoop=1;jettySize=auto;html=1;" parent="1" source="MG2l7j5qfs5tsOOVZs4c-7" target="MG2l7j5qfs5tsOOVZs4c-9" edge="1">
          <mxGeometry relative="1" as="geometry" />
        </mxCell>
        <mxCell id="MG2l7j5qfs5tsOOVZs4c-12" value="DIRECT" style="edgeStyle=orthogonalEdgeStyle;rounded=0;orthogonalLoop=1;jettySize=auto;html=1;entryX=0.5;entryY=0;entryDx=0;entryDy=0;" parent="1" source="MG2l7j5qfs5tsOOVZs4c-7" target="MG2l7j5qfs5tsOOVZs4c-11" edge="1">
          <mxGeometry x="-0.0278" y="-20" relative="1" as="geometry">
            <mxPoint as="offset" />
          </mxGeometry>
        </mxCell>
        <mxCell id="MG2l7j5qfs5tsOOVZs4c-15" style="edgeStyle=orthogonalEdgeStyle;rounded=0;orthogonalLoop=1;jettySize=auto;html=1;entryX=0.348;entryY=-0.075;entryDx=0;entryDy=0;entryPerimeter=0;exitX=0;exitY=0.5;exitDx=0;exitDy=0;" parent="1" source="MG2l7j5qfs5tsOOVZs4c-7" target="MG2l7j5qfs5tsOOVZs4c-14" edge="1">
          <mxGeometry relative="1" as="geometry" />
        </mxCell>
        <mxCell id="MG2l7j5qfs5tsOOVZs4c-7" value="Method?" style="rhombus;whiteSpace=wrap;html=1;" parent="1" vertex="1">
          <mxGeometry x="485" y="100" width="80" height="80" as="geometry" />
        </mxCell>
        <mxCell id="MG2l7j5qfs5tsOOVZs4c-9" value="&lt;span&gt;new&amp;nbsp;&lt;/span&gt;&lt;b&gt;grp02.MongoToBroker&lt;br&gt;&lt;/b&gt;new&amp;nbsp;&lt;b&gt;grp02.ConnectionSQL&lt;/b&gt;&lt;b&gt;&lt;br&gt;&lt;/b&gt;" style="whiteSpace=wrap;html=1;" parent="1" vertex="1">
          <mxGeometry x="780" y="50" width="200" height="60" as="geometry" />
        </mxCell>
        <mxCell id="MG2l7j5qfs5tsOOVZs4c-16" value="" style="edgeStyle=orthogonalEdgeStyle;rounded=0;orthogonalLoop=1;jettySize=auto;html=1;" parent="1" source="MG2l7j5qfs5tsOOVZs4c-11" target="MG2l7j5qfs5tsOOVZs4c-3" edge="1">
          <mxGeometry relative="1" as="geometry" />
        </mxCell>
        <mxCell id="MG2l7j5qfs5tsOOVZs4c-17" style="edgeStyle=orthogonalEdgeStyle;rounded=0;orthogonalLoop=1;jettySize=auto;html=1;" parent="1" source="MG2l7j5qfs5tsOOVZs4c-11" target="MG2l7j5qfs5tsOOVZs4c-1" edge="1">
          <mxGeometry relative="1" as="geometry" />
        </mxCell>
        <mxCell id="MG2l7j5qfs5tsOOVZs4c-18" style="edgeStyle=orthogonalEdgeStyle;rounded=0;orthogonalLoop=1;jettySize=auto;html=1;entryX=0.5;entryY=0;entryDx=0;entryDy=0;" parent="1" source="MG2l7j5qfs5tsOOVZs4c-11" target="MG2l7j5qfs5tsOOVZs4c-2" edge="1">
          <mxGeometry relative="1" as="geometry" />
        </mxCell>
        <mxCell id="MG2l7j5qfs5tsOOVZs4c-11" value="new &lt;b&gt;MeasurementMongoFetcher&lt;/b&gt;&lt;b&gt;&lt;br&gt;&lt;/b&gt;" style="whiteSpace=wrap;html=1;" parent="1" vertex="1">
          <mxGeometry x="55" y="170" width="210" height="40" as="geometry" />
        </mxCell>
        <mxCell id="MG2l7j5qfs5tsOOVZs4c-28" style="edgeStyle=orthogonalEdgeStyle;rounded=0;orthogonalLoop=1;jettySize=auto;html=1;entryX=0;entryY=0.5;entryDx=0;entryDy=0;" parent="1" target="MG2l7j5qfs5tsOOVZs4c-32" edge="1">
          <mxGeometry relative="1" as="geometry">
            <mxPoint x="-20" y="371" as="sourcePoint" />
            <mxPoint x="20" y="415" as="targetPoint" />
            <Array as="points">
              <mxPoint x="-20" y="465" />
            </Array>
          </mxGeometry>
        </mxCell>
        <mxCell id="MG2l7j5qfs5tsOOVZs4c-61" style="edgeStyle=orthogonalEdgeStyle;rounded=0;orthogonalLoop=1;jettySize=auto;html=1;entryX=0;entryY=0.5;entryDx=0;entryDy=0;startArrow=none;startFill=0;exitX=0;exitY=0.5;exitDx=0;exitDy=0;" parent="1" source="MG2l7j5qfs5tsOOVZs4c-14" target="MG2l7j5qfs5tsOOVZs4c-64" edge="1">
          <mxGeometry relative="1" as="geometry">
            <mxPoint x="-20" y="532.5" as="targetPoint" />
            <Array as="points">
              <mxPoint x="-40" y="350" />
              <mxPoint x="-40" y="659" />
            </Array>
          </mxGeometry>
        </mxCell>
        <mxCell id="MG2l7j5qfs5tsOOVZs4c-65" style="edgeStyle=orthogonalEdgeStyle;rounded=0;orthogonalLoop=1;jettySize=auto;html=1;entryX=0;entryY=0.5;entryDx=0;entryDy=0;startArrow=none;startFill=0;exitX=0;exitY=0.5;exitDx=0;exitDy=0;" parent="1" source="MG2l7j5qfs5tsOOVZs4c-14" target="MG2l7j5qfs5tsOOVZs4c-63" edge="1">
          <mxGeometry relative="1" as="geometry">
            <Array as="points">
              <mxPoint x="-40" y="350" />
              <mxPoint x="-40" y="723" />
            </Array>
          </mxGeometry>
        </mxCell>
        <mxCell id="MG2l7j5qfs5tsOOVZs4c-14" value="new &lt;b&gt;MongoToMySql&lt;/b&gt;&lt;b&gt;&lt;br&gt;&lt;/b&gt;" style="whiteSpace=wrap;html=1;" parent="1" vertex="1">
          <mxGeometry x="-30" y="330" width="150" height="40" as="geometry" />
        </mxCell>
        <mxCell id="MG2l7j5qfs5tsOOVZs4c-19" value="buffer (collection)" style="strokeWidth=1;html=1;shape=mxgraph.flowchart.direct_data;whiteSpace=wrap;dashed=1;align=center;" parent="1" vertex="1">
          <mxGeometry x="290" y="320" width="150" height="20" as="geometry" />
        </mxCell>
        <mxCell id="MG2l7j5qfs5tsOOVZs4c-20" value="buffer (collection)" style="strokeWidth=1;html=1;shape=mxgraph.flowchart.direct_data;whiteSpace=wrap;dashed=1;align=center;" parent="1" vertex="1">
          <mxGeometry x="300" y="330" width="150" height="20" as="geometry" />
        </mxCell>
        <mxCell id="MG2l7j5qfs5tsOOVZs4c-25" value="MySQL (Local)" style="shape=cylinder3;whiteSpace=wrap;html=1;boundedLbl=1;backgroundOutline=1;size=15;strokeWidth=1;fillColor=#60a917;strokeColor=#2D7600;fontColor=#ffffff;" parent="1" vertex="1">
          <mxGeometry x="930" y="320" width="100" height="110" as="geometry" />
        </mxCell>
        <mxCell id="MG2l7j5qfs5tsOOVZs4c-44" style="edgeStyle=orthogonalEdgeStyle;rounded=0;orthogonalLoop=1;jettySize=auto;html=1;entryX=0;entryY=0.5;entryDx=0;entryDy=0;" parent="1" source="MG2l7j5qfs5tsOOVZs4c-32" target="MG2l7j5qfs5tsOOVZs4c-45" edge="1">
          <mxGeometry relative="1" as="geometry">
            <mxPoint x="590" y="455" as="targetPoint" />
          </mxGeometry>
        </mxCell>
        <mxCell id="MG2l7j5qfs5tsOOVZs4c-33" value="" style="shape=process;whiteSpace=wrap;html=1;backgroundOutline=1;" parent="1" vertex="1">
          <mxGeometry x="30" y="460" width="160" height="30" as="geometry" />
        </mxCell>
        <mxCell id="MG2l7j5qfs5tsOOVZs4c-36" style="edgeStyle=orthogonalEdgeStyle;rounded=0;orthogonalLoop=1;jettySize=auto;html=1;entryX=0;entryY=0.5;entryDx=0;entryDy=0;" parent="1" target="MG2l7j5qfs5tsOOVZs4c-33" edge="1">
          <mxGeometry relative="1" as="geometry">
            <mxPoint x="-20" y="370" as="sourcePoint" />
            <Array as="points">
              <mxPoint x="-20" y="370" />
              <mxPoint x="-20" y="425" />
            </Array>
          </mxGeometry>
        </mxCell>
        <mxCell id="MG2l7j5qfs5tsOOVZs4c-37" style="edgeStyle=orthogonalEdgeStyle;rounded=0;orthogonalLoop=1;jettySize=auto;html=1;entryX=0;entryY=0.5;entryDx=0;entryDy=0;" parent="1" source="MG2l7j5qfs5tsOOVZs4c-14" target="MG2l7j5qfs5tsOOVZs4c-34" edge="1">
          <mxGeometry relative="1" as="geometry">
            <Array as="points">
              <mxPoint x="-20" y="485" />
            </Array>
          </mxGeometry>
        </mxCell>
        <mxCell id="MG2l7j5qfs5tsOOVZs4c-40" style="edgeStyle=orthogonalEdgeStyle;rounded=0;orthogonalLoop=1;jettySize=auto;html=1;exitX=1;exitY=0.5;exitDx=0;exitDy=0;entryX=0;entryY=0.5;entryDx=0;entryDy=0;entryPerimeter=0;" parent="1" source="MG2l7j5qfs5tsOOVZs4c-45" target="MG2l7j5qfs5tsOOVZs4c-25" edge="1">
          <mxGeometry relative="1" as="geometry">
            <mxPoint x="710" y="420" as="sourcePoint" />
            <Array as="points">
              <mxPoint x="870" y="465" />
              <mxPoint x="870" y="375" />
            </Array>
          </mxGeometry>
        </mxCell>
        <mxCell id="MG2l7j5qfs5tsOOVZs4c-45" value="ErrorSupervisor" style="shape=process;whiteSpace=wrap;html=1;backgroundOutline=1;strokeWidth=1;" parent="1" vertex="1">
          <mxGeometry x="580" y="452" width="130" height="25" as="geometry" />
        </mxCell>
        <mxCell id="MG2l7j5qfs5tsOOVZs4c-48" style="edgeStyle=orthogonalEdgeStyle;rounded=0;orthogonalLoop=1;jettySize=auto;html=1;entryX=0;entryY=0.5;entryDx=0;entryDy=0;entryPerimeter=0;exitX=1;exitY=0.5;exitDx=0;exitDy=0;" parent="1" source="MG2l7j5qfs5tsOOVZs4c-46" target="MG2l7j5qfs5tsOOVZs4c-25" edge="1">
          <mxGeometry relative="1" as="geometry">
            <Array as="points">
              <mxPoint x="720" y="476" />
              <mxPoint x="870" y="476" />
              <mxPoint x="870" y="375" />
            </Array>
          </mxGeometry>
        </mxCell>
        <mxCell id="MG2l7j5qfs5tsOOVZs4c-49" style="edgeStyle=orthogonalEdgeStyle;rounded=0;orthogonalLoop=1;jettySize=auto;html=1;entryX=0;entryY=0.5;entryDx=0;entryDy=0;entryPerimeter=0;exitX=1;exitY=0.5;exitDx=0;exitDy=0;" parent="1" source="MG2l7j5qfs5tsOOVZs4c-47" target="MG2l7j5qfs5tsOOVZs4c-25" edge="1">
          <mxGeometry relative="1" as="geometry">
            <Array as="points">
              <mxPoint x="870" y="485" />
              <mxPoint x="870" y="375" />
            </Array>
          </mxGeometry>
        </mxCell>
        <mxCell id="MG2l7j5qfs5tsOOVZs4c-43" style="edgeStyle=orthogonalEdgeStyle;rounded=0;orthogonalLoop=1;jettySize=auto;html=1;entryX=0;entryY=0.5;entryDx=0;entryDy=0;" parent="1" source="MG2l7j5qfs5tsOOVZs4c-33" target="MG2l7j5qfs5tsOOVZs4c-46" edge="1">
          <mxGeometry relative="1" as="geometry">
            <mxPoint x="590" y="470" as="targetPoint" />
          </mxGeometry>
        </mxCell>
        <mxCell id="MG2l7j5qfs5tsOOVZs4c-83" style="edgeStyle=orthogonalEdgeStyle;curved=1;rounded=0;orthogonalLoop=1;jettySize=auto;html=1;exitX=0.25;exitY=1;exitDx=0;exitDy=0;entryX=0;entryY=0.5;entryDx=0;entryDy=0;entryPerimeter=0;dashed=1;startArrow=none;startFill=0;endArrow=block;endFill=0;" parent="1" source="MG2l7j5qfs5tsOOVZs4c-34" target="MG2l7j5qfs5tsOOVZs4c-81" edge="1">
          <mxGeometry relative="1" as="geometry" />
        </mxCell>
        <mxCell id="MG2l7j5qfs5tsOOVZs4c-84" value=".add(Measurement)" style="edgeLabel;html=1;align=center;verticalAlign=middle;resizable=0;points=[];" parent="MG2l7j5qfs5tsOOVZs4c-83" vertex="1" connectable="0">
          <mxGeometry x="-0.35" y="20" relative="1" as="geometry">
            <mxPoint x="-10" y="-11" as="offset" />
          </mxGeometry>
        </mxCell>
        <mxCell id="MG2l7j5qfs5tsOOVZs4c-34" value="SqlPublisher (Publish)" style="shape=process;whiteSpace=wrap;html=1;backgroundOutline=1;" parent="1" vertex="1">
          <mxGeometry x="40" y="470" width="160" height="30" as="geometry" />
        </mxCell>
        <mxCell id="MG2l7j5qfs5tsOOVZs4c-50" value="" style="endArrow=none;dashed=1;html=1;entryX=0.5;entryY=1;entryDx=0;entryDy=0;entryPerimeter=0;exitX=0.511;exitY=-0.023;exitDx=0;exitDy=0;exitPerimeter=0;startArrow=blockThin;startFill=0;" parent="1" source="MG2l7j5qfs5tsOOVZs4c-34" target="MG2l7j5qfs5tsOOVZs4c-21" edge="1">
          <mxGeometry width="50" height="50" relative="1" as="geometry">
            <mxPoint x="470" y="350" as="sourcePoint" />
            <mxPoint x="520" y="300" as="targetPoint" />
            <Array as="points">
              <mxPoint x="130" y="450" />
              <mxPoint x="385" y="390" />
            </Array>
          </mxGeometry>
        </mxCell>
        <mxCell id="MG2l7j5qfs5tsOOVZs4c-51" value="" style="endArrow=none;dashed=1;html=1;entryX=0.5;entryY=1;entryDx=0;entryDy=0;entryPerimeter=0;exitX=0.5;exitY=0;exitDx=0;exitDy=0;startArrow=blockThin;startFill=0;" parent="1" source="MG2l7j5qfs5tsOOVZs4c-33" edge="1">
          <mxGeometry width="50" height="50" relative="1" as="geometry">
            <mxPoint x="99.99999999999993" y="410.00000000000006" as="sourcePoint" />
            <mxPoint x="374.92" y="348.92000000000013" as="targetPoint" />
            <Array as="points">
              <mxPoint x="120" y="440" />
              <mxPoint x="375" y="380" />
            </Array>
          </mxGeometry>
        </mxCell>
        <mxCell id="MG2l7j5qfs5tsOOVZs4c-76" style="edgeStyle=orthogonalEdgeStyle;rounded=0;orthogonalLoop=1;jettySize=auto;html=1;startArrow=none;startFill=0;endArrow=block;endFill=0;exitX=1.002;exitY=0.167;exitDx=0;exitDy=0;exitPerimeter=0;curved=1;dashed=1;entryX=0.5;entryY=0;entryDx=0;entryDy=0;" parent="1" source="MG2l7j5qfs5tsOOVZs4c-19" target="MG2l7j5qfs5tsOOVZs4c-68" edge="1">
          <mxGeometry relative="1" as="geometry">
            <Array as="points">
              <mxPoint x="500" y="323" />
              <mxPoint x="500" y="420" />
              <mxPoint x="355" y="420" />
            </Array>
          </mxGeometry>
        </mxCell>
        <mxCell id="MG2l7j5qfs5tsOOVZs4c-21" value="buffer (collection)" style="strokeWidth=1;html=1;shape=mxgraph.flowchart.direct_data;whiteSpace=wrap;dashed=1;align=center;" parent="1" vertex="1">
          <mxGeometry x="310" y="340" width="150" height="20" as="geometry" />
        </mxCell>
        <mxCell id="MG2l7j5qfs5tsOOVZs4c-62" value="MySQL (Cloud)" style="shape=cylinder3;whiteSpace=wrap;html=1;boundedLbl=1;backgroundOutline=1;size=15;strokeWidth=1;fillColor=#60a917;strokeColor=#2D7600;fontColor=#ffffff;" parent="1" vertex="1">
          <mxGeometry x="930" y="210" width="100" height="80" as="geometry" />
        </mxCell>
        <mxCell id="MG2l7j5qfs5tsOOVZs4c-46" value="ErrorSupervisor" style="shape=process;whiteSpace=wrap;html=1;backgroundOutline=1;strokeWidth=1;" parent="1" vertex="1">
          <mxGeometry x="590" y="462" width="130" height="25" as="geometry" />
        </mxCell>
        <mxCell id="MG2l7j5qfs5tsOOVZs4c-47" value="ErrorSupervisor" style="shape=process;whiteSpace=wrap;html=1;backgroundOutline=1;strokeWidth=1;" parent="1" vertex="1">
          <mxGeometry x="600" y="472" width="130" height="25" as="geometry" />
        </mxCell>
        <mxCell id="MG2l7j5qfs5tsOOVZs4c-63" value="ParameterSupervisor" style="shape=process;whiteSpace=wrap;html=1;backgroundOutline=1;strokeWidth=1;" parent="1" vertex="1">
          <mxGeometry y="710" width="150" height="25" as="geometry" />
        </mxCell>
        <mxCell id="MG2l7j5qfs5tsOOVZs4c-66" style="edgeStyle=orthogonalEdgeStyle;rounded=0;orthogonalLoop=1;jettySize=auto;html=1;entryX=0.5;entryY=0;entryDx=0;entryDy=0;startArrow=none;startFill=0;dashed=1;endArrow=open;endFill=0;" parent="1" source="MG2l7j5qfs5tsOOVZs4c-64" target="MG2l7j5qfs5tsOOVZs4c-63" edge="1">
          <mxGeometry relative="1" as="geometry">
            <Array as="points">
              <mxPoint x="40" y="690" />
              <mxPoint x="75" y="690" />
            </Array>
          </mxGeometry>
        </mxCell>
        <mxCell id="MG2l7j5qfs5tsOOVZs4c-67" value=".notifyAll()" style="edgeLabel;html=1;align=center;verticalAlign=middle;resizable=0;points=[];" parent="MG2l7j5qfs5tsOOVZs4c-66" vertex="1" connectable="0">
          <mxGeometry x="0.2283" relative="1" as="geometry">
            <mxPoint x="31" as="offset" />
          </mxGeometry>
        </mxCell>
        <mxCell id="MG2l7j5qfs5tsOOVZs4c-64" value="New &lt;b&gt;PreAlertSet&lt;/b&gt;" style="rounded=0;whiteSpace=wrap;html=1;labelBackgroundColor=#FFFFFF;strokeWidth=1;align=center;" parent="1" vertex="1">
          <mxGeometry y="640" width="130" height="37" as="geometry" />
        </mxCell>
        <mxCell id="MG2l7j5qfs5tsOOVZs4c-91" style="edgeStyle=orthogonalEdgeStyle;curved=1;rounded=0;orthogonalLoop=1;jettySize=auto;html=1;entryX=0;entryY=0.5;entryDx=0;entryDy=0;dashed=1;startArrow=none;startFill=0;endArrow=block;endFill=0;" parent="1" source="MG2l7j5qfs5tsOOVZs4c-70" target="MG2l7j5qfs5tsOOVZs4c-90" edge="1">
          <mxGeometry relative="1" as="geometry">
            <Array as="points">
              <mxPoint x="375" y="600" />
            </Array>
          </mxGeometry>
        </mxCell>
        <mxCell id="MG2l7j5qfs5tsOOVZs4c-70" value="new &lt;b&gt;ParamAnalyser&lt;/b&gt;" style="rounded=0;whiteSpace=wrap;html=1;labelBackgroundColor=#FFFFFF;strokeWidth=1;align=center;" parent="1" vertex="1">
          <mxGeometry x="310" y="517" width="130" height="37" as="geometry" />
        </mxCell>
        <mxCell id="MG2l7j5qfs5tsOOVZs4c-71" style="edgeStyle=orthogonalEdgeStyle;rounded=0;orthogonalLoop=1;jettySize=auto;html=1;entryX=0;entryY=0.5;entryDx=0;entryDy=0;startArrow=none;startFill=0;endArrow=block;endFill=1;exitX=0.5;exitY=1;exitDx=0;exitDy=0;" parent="1" source="MG2l7j5qfs5tsOOVZs4c-34" target="MG2l7j5qfs5tsOOVZs4c-70" edge="1">
          <mxGeometry relative="1" as="geometry" />
        </mxCell>
        <mxCell id="MG2l7j5qfs5tsOOVZs4c-78" style="edgeStyle=orthogonalEdgeStyle;rounded=0;orthogonalLoop=1;jettySize=auto;html=1;startArrow=none;startFill=0;endArrow=block;endFill=0;exitX=0.986;exitY=0.208;exitDx=0;exitDy=0;exitPerimeter=0;curved=1;dashed=1;entryX=0.5;entryY=0;entryDx=0;entryDy=0;" parent="1" source="MG2l7j5qfs5tsOOVZs4c-20" target="MG2l7j5qfs5tsOOVZs4c-69" edge="1">
          <mxGeometry relative="1" as="geometry">
            <mxPoint x="530.3000000000002" y="386.67" as="sourcePoint" />
            <mxPoint x="395" y="583.33" as="targetPoint" />
            <Array as="points">
              <mxPoint x="510" y="334" />
              <mxPoint x="510" y="429" />
              <mxPoint x="365" y="429" />
            </Array>
          </mxGeometry>
        </mxCell>
        <mxCell id="MG2l7j5qfs5tsOOVZs4c-79" style="edgeStyle=orthogonalEdgeStyle;rounded=0;orthogonalLoop=1;jettySize=auto;html=1;startArrow=none;startFill=0;endArrow=block;endFill=0;exitX=0.986;exitY=0.208;exitDx=0;exitDy=0;exitPerimeter=0;curved=1;dashed=1;entryX=0.5;entryY=0;entryDx=0;entryDy=0;" parent="1" target="MG2l7j5qfs5tsOOVZs4c-70" edge="1">
          <mxGeometry relative="1" as="geometry">
            <mxPoint x="457.9000000000001" y="344.15999999999997" as="sourcePoint" />
            <mxPoint x="305" y="520" as="targetPoint" />
            <Array as="points">
              <mxPoint x="520" y="344" />
              <mxPoint x="520" y="440" />
              <mxPoint x="375" y="440" />
            </Array>
          </mxGeometry>
        </mxCell>
        <mxCell id="MG2l7j5qfs5tsOOVZs4c-80" value=".peek(Measurement)" style="edgeLabel;html=1;align=center;verticalAlign=middle;resizable=0;points=[];rotation=357;" parent="MG2l7j5qfs5tsOOVZs4c-79" vertex="1" connectable="0">
          <mxGeometry x="0.0271" y="-3" relative="1" as="geometry">
            <mxPoint x="1" y="12" as="offset" />
          </mxGeometry>
        </mxCell>
        <mxCell id="MG2l7j5qfs5tsOOVZs4c-39" value="" style="edgeStyle=orthogonalEdgeStyle;rounded=0;orthogonalLoop=1;jettySize=auto;html=1;entryX=0;entryY=0.5;entryDx=0;entryDy=0;" parent="1" source="MG2l7j5qfs5tsOOVZs4c-34" target="MG2l7j5qfs5tsOOVZs4c-47" edge="1">
          <mxGeometry relative="1" as="geometry">
            <mxPoint x="590" y="485" as="targetPoint" />
          </mxGeometry>
        </mxCell>
        <mxCell id="MG2l7j5qfs5tsOOVZs4c-93" style="edgeStyle=orthogonalEdgeStyle;curved=1;rounded=0;orthogonalLoop=1;jettySize=auto;html=1;entryX=0;entryY=0.5;entryDx=0;entryDy=0;dashed=1;startArrow=none;startFill=0;endArrow=block;endFill=0;" parent="1" source="MG2l7j5qfs5tsOOVZs4c-81" target="MG2l7j5qfs5tsOOVZs4c-90" edge="1">
          <mxGeometry relative="1" as="geometry" />
        </mxCell>
        <mxCell id="MG2l7j5qfs5tsOOVZs4c-81" value="measurements" style="strokeWidth=1;html=1;shape=mxgraph.flowchart.direct_data;whiteSpace=wrap;dashed=1;align=center;" parent="1" vertex="1">
          <mxGeometry x="190" y="580" width="150" height="20" as="geometry" />
        </mxCell>
        <mxCell id="MG2l7j5qfs5tsOOVZs4c-94" style="edgeStyle=orthogonalEdgeStyle;curved=1;rounded=0;orthogonalLoop=1;jettySize=auto;html=1;entryX=0;entryY=0.5;entryDx=0;entryDy=0;dashed=1;startArrow=none;startFill=0;endArrow=block;endFill=0;" parent="1" source="MG2l7j5qfs5tsOOVZs4c-85" target="MG2l7j5qfs5tsOOVZs4c-90" edge="1">
          <mxGeometry relative="1" as="geometry" />
        </mxCell>
        <mxCell id="MG2l7j5qfs5tsOOVZs4c-85" value="measurements" style="strokeWidth=1;html=1;shape=mxgraph.flowchart.direct_data;whiteSpace=wrap;dashed=1;align=center;" parent="1" vertex="1">
          <mxGeometry x="200" y="590" width="150" height="20" as="geometry" />
        </mxCell>
        <mxCell id="MG2l7j5qfs5tsOOVZs4c-92" style="edgeStyle=orthogonalEdgeStyle;curved=1;rounded=0;orthogonalLoop=1;jettySize=auto;html=1;dashed=1;startArrow=none;startFill=0;endArrow=block;endFill=0;entryX=0;entryY=0.5;entryDx=0;entryDy=0;" parent="1" source="MG2l7j5qfs5tsOOVZs4c-86" target="MG2l7j5qfs5tsOOVZs4c-90" edge="1">
          <mxGeometry relative="1" as="geometry">
            <mxPoint x="410" y="600" as="targetPoint" />
          </mxGeometry>
        </mxCell>
        <mxCell id="MG2l7j5qfs5tsOOVZs4c-86" value="measurements" style="strokeWidth=1;html=1;shape=mxgraph.flowchart.direct_data;whiteSpace=wrap;dashed=1;align=center;" parent="1" vertex="1">
          <mxGeometry x="210" y="600" width="150" height="20" as="geometry" />
        </mxCell>
        <mxCell id="MG2l7j5qfs5tsOOVZs4c-90" value=".analyse()" style="shape=parallelogram;perimeter=parallelogramPerimeter;whiteSpace=wrap;html=1;fixedSize=1;labelBackgroundColor=#FFFFFF;strokeWidth=1;align=center;" parent="1" vertex="1">
          <mxGeometry x="430" y="580" width="120" height="40" as="geometry" />
        </mxCell>
      </root>
    </mxGraphModel>
  </diagram>
</mxfile>
